<svg xmlns="http://www.w3.org/2000/svg" viewBox="0 0 200 200" id="dark-empty-task-detail">
  <style>#dark-empty-task-detail .st0{fill-rule:evenodd;clip-rule:evenodd;fill:#4a4a4a}</style>
  <g transform="matrix(-1 0 0 1 137 28)" id="dark-empty-task-detail_empty-nodetails-selected-1">
    <g id="dark-empty-task-detail_Group-2">
      <g id="dark-empty-task-detail_Rectangle-2" transform="translate(6)">
        <path id="dark-empty-task-detail_形状结合" class="st0" d="M0,6.7C9.3,2.4,19.6,0,30.5,0c40,0,72.5,32.5,72.5,72.5c0,15.4-4.8,29.7-13,41.5H30.8H0 V79.3V6.7z"></path>
        <path d="M10,2.9C16.5,1,23.4,0,30.5,0c40,0,72.5,32.5,72.5,72.5c0,5.3-0.6,10.5-1.7,15.5H10V2.9z" fill-rule="evenodd" clip-rule="evenodd" fill="#191919"></path>
        <path class="st0" d="M30 61h32v8H30V61zM93.7 37c1.4 2.6 2.7 5.2 3.9 8H30v-8L93.7 37 93.7 37zM71.9 13c3.4 2.4 6.6 5.1 9.6 8H30v-8H71.9z"></path>
      </g>
      <path d="M22.4,87.2l-12,20.8l8.7,5l12-20.8l10.4,6l-0.7-32.7L12,81.2L22.4,87.2z" fill="none"></path>
    </g>
  </g>
</svg>