<svg xmlns="http://www.w3.org/2000/svg" width="24" height="24" viewBox="0 0 24 24">
  <g fill-rule="evenodd">
    <path fill="none" d="M0 0H24V24H0z"></path>
    <path d="M19.0714286,3 C20.1365492,3 21,3.86345084 21,4.92857143 L21,19.0714286 C21,20.1365492 20.1365492,21 19.0714286,21 L4.92857143,21 C3.86345084,21 3,20.1365492 3,19.0714286 L3,4.92857143 C3,3.86345084 3.86345084,3 4.92857143,3 L19.0714286,3 Z M17.1552594,7.57901549 C16.932493,7.39148612 16.6126262,7.39359358 16.393298,7.56997221 L16.3161487,7.64425314 L11.4128465,13.2813853 L8.38227297,10.6790958 C8.160946,10.489047 7.84039507,10.4884121 7.61937006,10.6634368 L7.54153914,10.7372782 L6.74216384,11.6430586 L6.74216384,11.6430586 C6.54923639,11.865634 6.54916392,12.1897705 6.72739166,12.4114894 L6.80255646,12.4894349 L11.2148148,16.3139607 L11.2148148,16.3139607 L11.3027811,16.3771047 C11.5172391,16.5034596 11.7896134,16.4834258 11.9832761,16.3270527 L12.0610569,16.2517176 L18.1475893,9.19867391 L18.1475893,9.19867391 C18.3372832,8.97333628 18.3326758,8.64923256 18.1512655,8.4301099 L18.0749832,8.35325783 L17.1552594,7.57901549 Z"></path>
  </g>
</svg>