<?xml version="1.0" standalone="no"?><!DOCTYPE svg PUBLIC "-//W3C//DTD SVG 1.1//EN" "http://www.w3.org/Graphics/SVG/1.1/DTD/svg11.dtd"><svg t="1651589908479" class="icon" viewBox="0 0 1024 1024" version="1.1" xmlns="http://www.w3.org/2000/svg" p-id="4238" xmlns:xlink="http://www.w3.org/1999/xlink" width="24" height="24"><defs><style type="text/css"></style></defs><path d="M716.8 238.933333c46.933333 0 64 4.266667 81.066667 12.8 17.066667 8.533333 29.866667 21.333333 38.4 38.4s17.066667 38.4 17.066666 85.333334v341.333333c0 46.933333-4.266667 64-12.8 81.066667-8.533333 17.066667-21.333333 29.866667-38.4 38.4-17.066667 8.533333-34.133333 12.8-81.066666 12.8H307.2c-46.933333 0-64-4.266667-81.066667-12.8-17.066667-8.533333-29.866667-21.333333-38.4-38.4-12.8-17.066667-17.066667-34.133333-17.066666-81.066667v-341.333333c0-46.933333 4.266667-64 12.8-81.066667 8.533333-17.066667 21.333333-29.866667 38.4-38.4 17.066667-8.533333 34.133333-12.8 81.066666-12.8h-29.866666V170.666667c0-17.066667 17.066667-34.133333 34.133333-34.133334s34.133333 17.066667 34.133333 34.133334v68.266666h341.333334V170.666667c0-17.066667 17.066667-34.133333 34.133333-34.133334s34.133333 17.066667 34.133333 34.133334v68.266666h-34.133333zM341.333333 490.666667c29.866667 0 51.2-21.333333 51.2-51.2S371.2 388.266667 341.333333 388.266667s-51.2 21.333333-51.2 51.2 21.333333 51.2 51.2 51.2z m170.666667 0c29.866667 0 51.2-21.333333 51.2-51.2s-21.333333-51.2-51.2-51.2-51.2 21.333333-51.2 51.2 21.333333 51.2 51.2 51.2z m170.666667 0c29.866667 0 51.2-21.333333 51.2-51.2s-21.333333-51.2-51.2-51.2-51.2 21.333333-51.2 51.2 21.333333 51.2 51.2 51.2z m-341.333334 209.066666c29.866667 0 51.2-21.333333 51.2-51.2S371.2 597.333333 341.333333 597.333333s-51.2 21.333333-51.2 51.2 21.333333 51.2 51.2 51.2z m170.666667 0c29.866667 0 51.2-21.333333 51.2-51.2S541.866667 597.333333 512 597.333333s-51.2 21.333333-51.2 51.2 21.333333 51.2 51.2 51.2z" p-id="4239" fill="#19191966"></path></svg>