<?xml version="1.0" standalone="no"?><!DOCTYPE svg PUBLIC "-//W3C//DTD SVG 1.1//EN" "http://www.w3.org/Graphics/SVG/1.1/DTD/svg11.dtd"><svg t="1651747297464" class="icon" viewBox="0 0 1024 1024" version="1.1" xmlns="http://www.w3.org/2000/svg" p-id="24819" xmlns:xlink="http://www.w3.org/1999/xlink" width="32" height="32"><defs><style type="text/css"></style></defs><path d="M640 256V213.333333c0-25.6 17.066667-42.666667 42.666667-42.666666s42.666667 17.066667 42.666666 42.666666v42.666667c21.333333 0 29.866667 4.266667 42.666667 12.8 12.8 8.533333 25.6 17.066667 34.133333 34.133333 4.266667 8.533333 8.533333 25.6 8.533334 64v337.066667c0 38.4-4.266667 51.2-12.8 64-8.533333 12.8-17.066667 25.6-34.133334 34.133333-12.8 8.533333-25.6 12.8-64 12.8H324.266667c-38.4 0-51.2-4.266667-64-12.8-12.8-8.533333-25.6-17.066667-34.133334-34.133333-8.533333-12.8-12.8-29.866667-12.8-68.266667V366.933333c0-38.4 4.266667-55.466667 12.8-68.266666 4.266667-12.8 17.066667-25.6 29.866667-29.866667 12.8-8.533333 21.333333-8.533333 42.666667-12.8V213.333333c0-25.6 17.066667-42.666667 42.666666-42.666666s42.666667 17.066667 42.666667 42.666666v42.666667h256z m-298.666667 213.333333c25.6 0 42.666667-17.066667 42.666667-42.666666s-17.066667-42.666667-42.666667-42.666667-42.666667 17.066667-42.666666 42.666667 17.066667 42.666667 42.666666 42.666666z m170.666667 0c25.6 0 42.666667-17.066667 42.666667-42.666666s-17.066667-42.666667-42.666667-42.666667-42.666667 17.066667-42.666667 42.666667 17.066667 42.666667 42.666667 42.666666z m-170.666667 170.666667c25.6 0 42.666667-17.066667 42.666667-42.666667s-17.066667-42.666667-42.666667-42.666666-42.666667 17.066667-42.666666 42.666666 17.066667 42.666667 42.666666 42.666667z m170.666667 0c25.6 0 42.666667-17.066667 42.666667-42.666667s-17.066667-42.666667-42.666667-42.666666-42.666667 17.066667-42.666667 42.666666 17.066667 42.666667 42.666667 42.666667z m170.666667-170.666667c25.6 0 42.666667-17.066667 42.666666-42.666666s-17.066667-42.666667-42.666666-42.666667-42.666667 17.066667-42.666667 42.666667 17.066667 42.666667 42.666667 42.666666z" fill="currentColor"  p-id="24820"></path></svg>