<?xml version="1.0" standalone="no"?><!DOCTYPE svg PUBLIC "-//W3C//DTD SVG 1.1//EN" "http://www.w3.org/Graphics/SVG/1.1/DTD/svg11.dtd"><svg t="1651590299344" class="icon" viewBox="0 0 1024 1024" version="1.1" xmlns="http://www.w3.org/2000/svg" p-id="4939" xmlns:xlink="http://www.w3.org/1999/xlink" width="24" height="24"><defs><style type="text/css"></style></defs><path d="M375.466667 512H307.2v68.266667h68.266667v68.266666h68.266666v-68.266666H512V512h-68.266667v-68.266667H375.466667V512z m341.333333-273.066667c46.933333 0 64 4.266667 81.066667 12.8 17.066667 8.533333 29.866667 21.333333 38.4 38.4s17.066667 38.4 17.066666 85.333334v341.333333c0 46.933333-4.266667 64-12.8 81.066667-8.533333 17.066667-21.333333 29.866667-38.4 38.4-17.066667 8.533333-34.133333 12.8-81.066666 12.8H307.2c-46.933333 0-64-4.266667-81.066667-12.8-17.066667-8.533333-29.866667-21.333333-38.4-38.4-12.8-17.066667-17.066667-34.133333-17.066666-81.066667v-341.333333c0-46.933333 4.266667-64 12.8-81.066667 8.533333-17.066667 21.333333-29.866667 38.4-38.4 17.066667-8.533333 34.133333-12.8 81.066666-12.8h-29.866666V170.666667c0-17.066667 17.066667-34.133333 34.133333-34.133334s34.133333 17.066667 34.133333 34.133334v68.266666h341.333334V170.666667c0-17.066667 17.066667-34.133333 34.133333-34.133334s34.133333 17.066667 34.133333 34.133334v68.266666h-34.133333z m-213.333333 226.133334h149.333333l-106.666667 256h72.533334l106.666666-268.8V401.066667h-221.866666v64z" p-id="4940" fill="#19191966"></path></svg>