<?xml version="1.0" standalone="no"?><!DOCTYPE svg PUBLIC "-//W3C//DTD SVG 1.1//EN" "http://www.w3.org/Graphics/SVG/1.1/DTD/svg11.dtd"><svg t="1651590188810" class="icon" viewBox="0 0 1024 1024" version="1.1" xmlns="http://www.w3.org/2000/svg" p-id="4704" xmlns:xlink="http://www.w3.org/1999/xlink" width="24" height="24"><defs><style type="text/css"></style></defs><path d="M477.866667 217.6l-42.666667 42.666667L384 213.333333l102.4-102.4c12.8-12.8 34.133333-12.8 46.933333 0L640 213.333333l-46.933333 46.933334-42.666667-42.666667V341.333333c136.533333 17.066667 238.933333 132.266667 238.933333 273.066667 0 51.2-12.8 98.133333-38.4 136.533333H277.333333c-21.333333-38.4-38.4-85.333333-38.4-136.533333 0-140.8 102.4-256 238.933334-273.066667V217.6zM332.8 819.2h490.666667c17.066667 0 34.133333 17.066667 34.133333 34.133333s-17.066667 34.133333-34.133333 34.133334H204.8c-17.066667 0-34.133333-17.066667-34.133333-34.133334s17.066667-34.133333 34.133333-34.133333h128z m-230.4-204.8H170.666667c17.066667 0 34.133333 17.066667 34.133333 34.133333s-17.066667 34.133333-34.133333 34.133334H102.4c-17.066667 0-34.133333-17.066667-34.133333-34.133334s17.066667-34.133333 34.133333-34.133333z m106.666667-277.333333L256 384c12.8 12.8 12.8 34.133333 0 46.933333-12.8 12.8-34.133333 12.8-46.933333 0L162.133333 384c-12.8-12.8-12.8-34.133333 0-46.933333 12.8-17.066667 34.133333-17.066667 46.933334 0z m605.866666 0c12.8-12.8 34.133333-12.8 46.933334 0 12.8 12.8 12.8 34.133333 0 46.933333l-46.933334 46.933333c-12.8 12.8-34.133333 12.8-46.933333 0-12.8-12.8-12.8-34.133333 0-46.933333l46.933333-46.933333z m38.4 277.333333h68.266667c17.066667 0 34.133333 17.066667 34.133333 34.133333s-17.066667 34.133333-34.133333 34.133334H853.333333c-17.066667 0-34.133333-17.066667-34.133333-34.133334s17.066667-34.133333 34.133333-34.133333z" p-id="4705" fill="#19191966"></path></svg>