<?xml version="1.0" standalone="no"?><!DOCTYPE svg PUBLIC "-//W3C//DTD SVG 1.1//EN" "http://www.w3.org/Graphics/SVG/1.1/DTD/svg11.dtd"><svg t="1651590108689" class="icon" viewBox="0 0 1024 1024" version="1.1" xmlns="http://www.w3.org/2000/svg" p-id="4469" xmlns:xlink="http://www.w3.org/1999/xlink" width="24" height="24"><defs><style type="text/css"></style></defs><path d="M512 746.666667c-132.266667 0-234.666667-106.666667-234.666667-234.666667S379.733333 277.333333 512 277.333333 746.666667 384 746.666667 512s-102.4 234.666667-234.666667 234.666667z m0-640c17.066667 0 34.133333 17.066667 34.133333 34.133333v68.266667c0 17.066667-17.066667 34.133333-34.133333 34.133333s-34.133333-17.066667-34.133333-34.133333V140.8c0-17.066667 17.066667-34.133333 34.133333-34.133333z m0 674.133333c17.066667 0 34.133333 17.066667 34.133333 34.133333v68.266667c0 17.066667-17.066667 34.133333-34.133333 34.133333s-34.133333-17.066667-34.133333-34.133333v-68.266667c0-17.066667 17.066667-34.133333 34.133333-34.133333z m285.866667-554.666667c12.8 12.8 12.8 34.133333 0 46.933334l-46.933334 46.933333c-12.8 12.8-34.133333 12.8-46.933333 0-12.8-12.8-12.8-34.133333 0-46.933333l46.933333-46.933334c12.8-12.8 34.133333-12.8 46.933334 0zM320 704c12.8 12.8 12.8 34.133333 0 46.933333l-46.933333 46.933334c-12.8 12.8-34.133333 12.8-46.933334 0-12.8-12.8-12.8-34.133333 0-46.933334l46.933334-46.933333c12.8-12.8 34.133333-12.8 46.933333 0z m597.333333-192c0 17.066667-17.066667 34.133333-34.133333 34.133333h-68.266667c-17.066667 0-34.133333-17.066667-34.133333-34.133333s17.066667-34.133333 34.133333-34.133333h68.266667c17.066667 0 34.133333 17.066667 34.133333 34.133333zM243.2 512c0 17.066667-17.066667 34.133333-34.133333 34.133333H140.8c-17.066667 0-34.133333-17.066667-34.133333-34.133333s17.066667-34.133333 34.133333-34.133333h68.266667c17.066667 0 34.133333 17.066667 34.133333 34.133333z m554.666667 285.866667c-12.8 12.8-34.133333 12.8-46.933334 0l-46.933333-46.933334c-12.8-12.8-12.8-34.133333 0-46.933333 12.8-12.8 34.133333-12.8 46.933333 0l46.933334 46.933333c12.8 12.8 12.8 34.133333 0 46.933334zM320 320c-12.8 12.8-34.133333 12.8-46.933333 0L226.133333 273.066667c-12.8-12.8-12.8-34.133333 0-46.933334s34.133333-12.8 46.933334 0l46.933333 46.933334c12.8 12.8 12.8 34.133333 0 46.933333z" p-id="4470" fill="#19191966"></path></svg>