<?xml version="1.0" standalone="no"?><!DOCTYPE svg PUBLIC "-//W3C//DTD SVG 1.1//EN" "http://www.w3.org/Graphics/SVG/1.1/DTD/svg11.dtd"><svg t="1651630595730" class="icon" viewBox="0 0 1024 1024" version="1.1" xmlns="http://www.w3.org/2000/svg" p-id="24606" xmlns:xlink="http://www.w3.org/1999/xlink" width="24" height="24"><defs><style type="text/css"></style></defs><path d="M982.063 514.181c0-256.939-208.294-465.231-465.234-465.231C259.892 48.95 51.6 257.242 51.6 514.181c0 133.942 56.625 254.647 147.22 339.532l-94.79 94.785 40.677 40.67 98.64-98.63c76.765 55.88 171.265 88.87 273.482 88.87 107.18 0 205.865-36.26 284.529-97.15l106.91 106.92 40.68-40.68-104.27-104.265c84.845-84.28 137.375-201.024 137.375-330.054L982.063 514.181zM756.658 591.113 462.624 591.113l0-2.31-2.307 0L460.317 157.81l88.237 0 0 345.069 208.104 0L756.658 591.113 756.658 591.113zM87.145 70.155l-42.06 42.065c-46.46 46.46-46.46 121.787 0 168.247l0 0L255.394 70.155C208.934 23.697 133.607 23.697 87.145 70.155zM778.833 70.155 778.833 70.155l210.319 210.312c46.46-46.46 46.46-121.787 0-168.247l-42.065-42.065C900.628 23.697 825.293 23.697 778.833 70.155z" p-id="24607" fill="currentColor"></path></svg>